<svg width="1536" height="1536" viewBox="0 0 1536 1536" fill="none" xmlns="http://www.w3.org/2000/svg">
<g id="verschoren_social_orange">
<rect width="512" height="512" transform="scale(3)"/>
<path id="Subtract" fill-rule="evenodd" clip-rule="evenodd" d="M607.513 1205.67L614.732 1198.45C614.737 1198.44 614.737 1198.43 614.732 1198.43V1198.43C614.728 1198.42 614.728 1198.42 614.732 1198.41L775.968 1037.18C775.973 1037.17 775.98 1037.17 775.985 1037.18V1037.18C775.99 1037.18 775.997 1037.18 776.002 1037.18L1034.94 778.243C1038.72 774.463 1036.04 768 1030.69 768H941.924C940.333 768 938.807 768.633 937.681 769.758L805.398 902.041C805.382 902.057 805.382 902.082 805.398 902.098V902.098C805.414 902.114 805.414 902.14 805.398 902.155L644.203 1063.35C644.187 1063.37 644.161 1063.37 644.146 1063.35V1063.35C644.13 1063.33 644.104 1063.33 644.088 1063.35L628.706 1078.73C624.926 1082.51 618.463 1079.84 618.463 1074.49L618.463 774C618.463 770.687 615.776 768 612.463 768H549.694C546.38 768 543.694 770.687 543.694 774L543.694 1179.23C543.694 1194.35 552.802 1207.98 566.772 1213.77C580.742 1219.56 596.822 1216.36 607.513 1205.67ZM666.128 997.479C662.348 1001.26 655.885 998.581 655.885 993.236V734.393C655.885 732.307 654.194 730.616 652.108 730.616V730.616H618.463H543.694H543.693H288.001C284.688 730.616 282.001 727.93 282.001 724.616V661.847C282.001 658.533 284.688 655.847 288.001 655.847L543.693 655.847L543.694 655.847H618.463H655.885H730.654L786.693 655.847H1029.69L1051.59 655.847H1157.33L1197.92 655.847L1216.61 655.847C1231.74 655.847 1245.37 664.955 1251.15 678.924C1256.94 692.894 1253.74 708.973 1243.05 719.665L719.706 1243.05C709.014 1253.74 692.934 1256.94 678.964 1251.15C664.994 1245.37 655.885 1231.74 655.885 1216.61V1203.69C655.885 1202.1 656.517 1200.57 657.643 1199.45L797.928 1059.16C797.94 1059.15 797.94 1059.13 797.928 1059.12V1059.12C797.916 1059.11 797.916 1059.09 797.928 1059.08L1116.12 740.858C1119.9 737.078 1117.23 730.616 1111.88 730.616H1085.77H1082.56H976.823H917.539H736.654C733.341 730.616 730.654 733.302 730.654 736.616V930.467C730.654 932.058 730.022 933.584 728.897 934.71L666.128 997.479ZM1029.69 618.462H1192.23C1193.82 618.462 1195.35 617.83 1196.47 616.705L1205.67 607.513C1216.36 596.821 1219.56 580.741 1213.77 566.771C1207.98 552.802 1194.35 543.693 1179.23 543.693H730.654H655.885H624.463C621.149 543.693 618.463 541.007 618.463 537.693L618.462 288.001C618.462 284.688 615.776 282.001 612.462 282.001L549.693 282.002C546.38 282.002 543.693 284.688 543.693 288.002L543.693 537.693C543.693 541.007 541.007 543.693 537.693 543.693H288.001C284.688 543.693 282.001 546.38 282.001 549.693V612.462C282.001 615.776 284.688 618.462 288.001 618.462L543.693 618.462H786.693H1029.69ZM724.654 282.001C727.968 282.001 730.654 284.688 730.654 288.001V500.309C730.654 503.622 727.968 506.309 724.654 506.309H661.885C658.572 506.309 655.885 503.622 655.885 500.309V288.001C655.885 284.688 658.572 282.001 661.885 282.001H724.654Z" fill="#F97316"/>
</g>
</svg>
