<?xml version="1.0" encoding="UTF-8"?>
<svg width="2425px" height="512px" viewBox="0 0 2425 512" version="1.1" xmlns="http://www.w3.org/2000/svg" xmlns:xlink="http://www.w3.org/1999/xlink">
    <title>verschoren_logo_dark</title>
    <g id="verschoren_logo_dark" stroke="none" stroke-width="1" fill="none" fill-rule="evenodd">
        <g id="verschoren" transform="translate(516.960693, 101.195801)" fill="#FFFFFF" fill-rule="nonzero">
            <g>
                <path d="M88.6982422,260.485352 C107.279297,260.485352 117.972168,252.421875 124.458008,234.366699 L173.364746,102.195801 C174.942383,97.8134766 176.169434,92.5546875 176.169434,87.8217773 C176.169434,74.8500977 165.476562,65.0336914 151.277832,65.0336914 C139.35791,65.0336914 130.768555,71.5195312 127.262695,85.0170898 L89.2241211,211.578613 L88.1723633,211.578613 L50.1337891,85.5429688 C46.2773438,71.6948242 38.0385742,65.0336914 25.5927734,65.0336914 C11.043457,65.0336914 0,74.1489258 0,87.9970703 C0,93.2558594 1.22705078,98.6899414 2.8046875,103.247559 L51.7114258,234.366699 C58.5478516,252.597168 69.0654297,260.485352 88.6982422,260.485352 Z" id="Path"></path>
                <path d="M280.46875,260.835938 C316.754395,260.835938 345.853027,247.163086 358.298828,224.024414 C360.577637,219.817383 361.804688,215.610352 361.804688,211.578613 C361.804688,199.833984 352.864746,192.822266 341.821289,192.822266 C335.160156,192.822266 330.602539,194.750488 325.168457,200.359863 C311.320312,216.662109 299.049805,222.972656 280.293457,222.972656 C254.350098,222.972656 237.521973,204.742188 237.521973,176.870605 L237.521973,174.591797 L344.80127,174.591797 C359,174.591797 367.063477,166.52832 367.063477,152.32959 C367.063477,101.319336 331.303711,64.8583984 278.014648,64.8583984 C222.446777,64.8583984 187.212891,103.247559 187.212891,163.723633 C187.212891,224.550293 221.745605,260.835938 280.46875,260.835938 Z M238.047852,143.214355 C239.800781,119.199219 256.103027,102.72168 278.540527,102.72168 C300.978027,102.72168 316.754395,118.67334 317.806152,143.214355 L238.047852,143.214355 Z" id="Shape"></path>
                <path d="M418.950195,260.485352 C434.55127,260.485352 444.542969,250.844238 444.542969,233.84082 L444.542969,150.401367 C444.542969,128.13916 452.781738,114.992188 476.095703,114.641602 C486.087402,114.466309 493.449707,112.1875 498.35791,107.980469 C503.266113,103.773438 505.720215,97.6381836 505.720215,89.574707 C505.720215,80.8100586 503.266113,74.4995117 498.35791,70.6430664 C494.676758,67.487793 489.242676,65.9101562 482.40625,65.9101562 C463.649902,65.9101562 448.224121,79.7583008 443.315918,103.072266 L442.26416,103.072266 L442.26416,90.8017578 C442.26416,74.4995117 432.447754,65.0336914 418.07373,65.0336914 C403.349121,65.0336914 393.357422,74.4995117 393.357422,90.8017578 L393.357422,233.84082 C393.357422,250.844238 403.524414,260.485352 418.950195,260.485352 Z" id="Path"></path>
                <path d="M600.553711,260.835938 C650.161621,260.835938 683.642578,236.645508 683.642578,199.308105 C683.642578,171.26123 667.165039,156.536621 627.198242,148.122559 L596.171387,141.461426 C577.415039,137.429688 570.052734,130.943848 570.052734,121.127441 C570.052734,109.032227 582.147949,100.793457 599.501953,100.793457 C617.907715,100.793457 628.074707,109.558105 637.014648,120.952148 C641.572266,126.38623 648.93457,128.840332 655.595703,128.840332 C668.742676,128.840332 675.228516,121.65332 675.228516,111.311035 C675.228516,108.856934 674.702637,106.402832 674.001465,103.773438 C667.866211,82.5629883 639.293457,64.8583984 600.378418,64.8583984 C551.646973,64.8583984 520.620117,87.9970703 520.620117,123.932129 C520.620117,151.803711 539.201172,170.560059 576.012695,178.448242 L607.56543,185.109375 C625.971191,189.141113 632.457031,194.575195 632.457031,204.742188 C632.457031,217.187988 620.361816,224.900879 601.780762,224.900879 C582.323242,224.900879 570.753906,218.940918 560.762207,205.793945 C553.750488,197.905762 546.73877,194.224609 538.5,194.224609 C526.580078,194.224609 517.81543,202.112793 517.81543,213.857422 C517.81543,216.662109 518.516602,219.992676 519.743652,223.323242 C528.683594,245.410156 557.431641,260.835938 600.553711,260.835938 Z" id="Path"></path>
                <path d="M794.603027,260.835938 C830.538086,260.835938 862.616699,242.956055 873.835449,217.363281 C876.114258,212.279785 877.166016,208.072754 877.166016,204.041016 C877.166016,191.419922 867.524902,183.531738 855.60498,183.531738 C844.736816,183.531738 839.127441,187.914062 832.291016,198.606934 C824.402832,211.929199 813.359375,220.693848 795.479492,220.693848 C769.886719,220.693848 753.935059,199.658691 753.935059,162.671875 C753.935059,126.38623 769.886719,105.000488 795.830078,105.000488 C812.132324,105.000488 823.526367,112.538086 832.816895,129.015625 C838.075684,138.306152 844.210938,142.337891 854.37793,142.337891 C866.473145,142.337891 876.289551,134.975586 876.289551,122.354492 C876.289551,118.67334 875.237793,114.115723 873.484863,109.733398 C863.317871,83.0888672 831.94043,64.8583984 794.252441,64.8583984 C737.808105,64.8583984 702.04834,102.72168 702.04834,162.847168 C702.04834,223.673828 737.983398,260.835938 794.603027,260.835938 Z" id="Path"></path>
                <path d="M931.331543,260.485352 C946.406738,260.485352 956.924316,251.370117 956.924316,233.84082 L956.924316,149.524902 C956.924316,124.808594 971.123047,107.805176 995.313477,107.805176 C1018.62744,107.805176 1030.54736,122.529785 1030.54736,146.720215 L1030.54736,233.84082 C1030.54736,251.370117 1041.24023,260.485352 1056.14014,260.485352 C1071.21533,260.485352 1081.73291,251.370117 1081.73291,233.84082 L1081.73291,135.852051 C1081.73291,92.3793945 1057.89307,65.3842773 1016.17334,65.3842773 C987.600586,65.3842773 967.091309,78.706543 957.099609,102.371094 L956.047852,102.371094 L956.047852,26.2939453 C956.047852,9.81640625 946.757324,0 930.980957,0 C915.20459,0 905.73877,9.81640625 905.73877,26.2939453 L905.73877,233.84082 C905.73877,251.370117 916.431641,260.485352 931.331543,260.485352 Z" id="Path"></path>
                <path d="M1200.58154,260.835938 C1257.37646,260.835938 1293.66211,224.550293 1293.66211,162.671875 C1293.66211,101.669922 1256.85059,64.8583984 1200.58154,64.8583984 C1144.3125,64.8583984 1107.50098,101.845215 1107.50098,162.671875 C1107.50098,224.375 1143.78662,260.835938 1200.58154,260.835938 Z M1200.58154,221.745605 C1175.33936,221.745605 1159.3877,200.535156 1159.3877,162.847168 C1159.3877,125.509766 1175.68994,103.94873 1200.58154,103.94873 C1225.47314,103.94873 1241.6001,125.509766 1241.6001,162.847168 C1241.6001,200.535156 1225.64844,221.745605 1200.58154,221.745605 Z" id="Shape"></path>
                <path d="M1345.54883,260.485352 C1361.1499,260.485352 1371.1416,250.844238 1371.1416,233.84082 L1371.1416,150.401367 C1371.1416,128.13916 1379.38037,114.992188 1402.69434,114.641602 C1412.68604,114.466309 1420.04834,112.1875 1424.95654,107.980469 C1429.86475,103.773438 1432.31885,97.6381836 1432.31885,89.574707 C1432.31885,80.8100586 1429.86475,74.4995117 1424.95654,70.6430664 C1421.27539,67.487793 1415.84131,65.9101562 1409.00488,65.9101562 C1390.24854,65.9101562 1374.82275,79.7583008 1369.91455,103.072266 L1368.86279,103.072266 L1368.86279,90.8017578 C1368.86279,74.4995117 1359.04639,65.0336914 1344.67236,65.0336914 C1329.94775,65.0336914 1319.95605,74.4995117 1319.95605,90.8017578 L1319.95605,233.84082 C1319.95605,250.844238 1330.12305,260.485352 1345.54883,260.485352 Z" id="Path"></path>
                <path d="M1530.8335,260.835938 C1567.11914,260.835938 1596.21777,247.163086 1608.66357,224.024414 C1610.94238,219.817383 1612.16943,215.610352 1612.16943,211.578613 C1612.16943,199.833984 1603.22949,192.822266 1592.18604,192.822266 C1585.5249,192.822266 1580.96729,194.750488 1575.5332,200.359863 C1561.68506,216.662109 1549.41455,222.972656 1530.6582,222.972656 C1504.71484,222.972656 1487.88672,204.742188 1487.88672,176.870605 L1487.88672,174.591797 L1595.16602,174.591797 C1609.36475,174.591797 1617.42822,166.52832 1617.42822,152.32959 C1617.42822,101.319336 1581.66846,64.8583984 1528.37939,64.8583984 C1472.81152,64.8583984 1437.57764,103.247559 1437.57764,163.723633 C1437.57764,224.550293 1472.11035,260.835938 1530.8335,260.835938 Z M1488.4126,143.214355 C1490.16553,119.199219 1506.46777,102.72168 1528.90527,102.72168 C1551.34277,102.72168 1567.11914,118.67334 1568.1709,143.214355 L1488.4126,143.214355 Z" id="Shape"></path>
                <path d="M1669.31494,260.485352 C1684.39014,260.485352 1694.90771,251.370117 1694.90771,233.84082 L1694.90771,148.999023 C1694.90771,124.633301 1709.45703,107.805176 1732.42041,107.805176 C1755.38379,107.805176 1766.95312,121.828613 1766.95312,146.369629 L1766.95312,233.84082 C1766.95312,251.370117 1777.4707,260.485352 1792.5459,260.485352 C1807.4458,260.485352 1818.13867,251.370117 1818.13867,233.84082 L1818.13867,135.676758 C1818.13867,91.6782227 1794.64941,65.3842773 1752.92969,65.3842773 C1724.00635,65.3842773 1705.07471,78.1806641 1695.08301,101.494629 L1694.03125,101.494629 L1694.03125,90.9770508 C1694.03125,74.8500977 1683.86426,65.0336914 1668.43848,65.0336914 C1653.0127,65.0336914 1643.72217,74.8500977 1643.72217,90.8017578 L1643.72217,233.84082 C1643.72217,251.370117 1654.41504,260.485352 1669.31494,260.485352 Z" id="Path"></path>
            </g>
        </g>
        <path d="M401.5,271 C393.491871,271 387,264.508129 387,256.5 C387,248.491871 393.491871,242 401.5,242 C409.508129,242 416,248.491871 416,256.5 C416,264.508129 409.508129,271 401.5,271 Z M153.5,139.000725 C161.508129,139.000725 168,145.492434 168,153.500362 C168,161.508291 161.508129,168 153.5,168 C145.491871,168 139,161.508291 139,153.500362 C139,149.65482 140.527297,145.966704 143.246439,143.247358 C145.965581,140.528013 149.653636,139 153.499275,139 L153.5,139.000725 Z M139.000725,358.5 C139.000725,350.491871 145.492434,344 153.500362,344 C161.508291,344 168,350.491871 168,358.5 C168,366.508129 161.508291,373 153.500362,373 C149.654694,373 145.966468,371.472603 143.247102,368.753305 C140.527736,366.034006 139,362.345765 139,358.5 L139.000725,358.5 Z M358.5,373 C350.491871,373 344,366.508129 344,358.5 C344,350.491871 350.491871,344 358.5,344 C366.508129,344 373,350.491871 373,358.5 C373,366.508129 366.508129,373 358.5,373 Z M373,153.5 C373,161.508129 366.508129,168 358.5,168 C350.491871,168 344,161.508129 344,153.5 C344,145.491871 350.491871,139 358.5,139 C366.508129,139 373,145.491871 373,153.5 L373,153.5 Z M242,110.5 C242,102.491871 248.491871,96 256.5,96 C264.508129,96 271,102.491871 271,110.5 C271,118.508129 264.508129,125 256.5,125 C252.654235,125 248.965994,123.472226 246.246695,120.752792 C243.527397,118.033358 242,114.34504 242,110.499275 L242,110.5 Z M256,169 C304.048773,169 343,207.951227 343,256 C343,304.048773 304.048773,343 256,343 C207.951227,343 169,304.048773 169,256 C169,207.951227 207.951227,169 256,169 Z M255.5,314.997075 C287.808658,314.997075 314,288.806388 314,256.498538 C314,224.190687 287.808658,198 255.5,198 C223.191342,198 197,224.190687 197,256.498538 C197,288.806526 223.191204,314.997577 255.5,315 L255.5,314.997075 Z M242,401.5 C242,393.491871 248.491871,387 256.5,387 C264.508129,387 271,393.491871 271,401.5 C271,409.508129 264.508129,416 256.5,416 C248.493004,416 242.001601,409.509896 242,401.5029 L242,401.5 Z M125,255.5 C125,263.508129 118.508129,270 110.5,270 C102.491871,270 96,263.508129 96,255.5 C96,247.491871 102.491871,241 110.5,241 C114.346142,241 118.034637,242.528449 120.753861,245.24849 C123.473086,247.96853 125,251.657483 124.999275,255.503625 L125,255.5 Z" id="Shape" fill="#FFD600" fill-rule="nonzero"></path>
    </g>
</svg>