<?xml version="1.0" encoding="UTF-8"?>
<svg width="512px" height="512px" viewBox="0 0 512 512" version="1.1" xmlns="http://www.w3.org/2000/svg" xmlns:xlink="http://www.w3.org/1999/xlink">
    <title>verschoren_yellow_dark</title>
    <g id="verschoren_yellow_dark" stroke="none" stroke-width="1" fill="none" fill-rule="evenodd">
        <path d="M440.5,275 C430.282732,275 422,266.717268 422,256.5 C422,246.282732 430.282732,238 440.5,238 C450.717268,238 459,246.282732 459,256.5 C459,266.717268 450.717268,275 440.5,275 Z M126.5,108.000925 C136.717268,108.000925 145,116.28345 145,126.500462 C145,136.717475 136.717268,145 126.5,145 C116.282732,145 108,136.717475 108,126.500462 C108,121.59408 109.948621,116.888553 113.41787,113.419043 C116.88712,109.949533 121.59257,108 126.499075,108 L126.5,108.000925 Z M108.000925,385.5 C108.000925,375.282732 116.28345,367 126.500462,367 C136.717475,367 145,375.282732 145,385.5 C145,395.717268 136.717475,404 126.500462,404 C121.59392,404 116.888252,402.051252 113.418716,398.581802 C109.94918,395.112353 108,390.406665 108,385.5 L108.000925,385.5 Z M385.5,404 C375.282732,404 367,395.717268 367,385.5 C367,375.282732 375.282732,367 385.5,367 C395.717268,367 404,375.282732 404,385.5 C404,395.717268 395.717268,404 385.5,404 Z M404,126.5 C404,136.717268 395.717268,145 385.5,145 C375.282732,145 367,136.717268 367,126.5 C367,116.282732 375.282732,108 385.5,108 C395.717268,108 404,116.282732 404,126.5 L404,126.5 Z M238,71.5 C238,61.2827321 246.282732,53 256.5,53 C266.717268,53 275,61.2827321 275,71.5 C275,81.7172679 266.717268,90 256.5,90 C251.593335,90 246.887647,88.0507715 243.418198,84.5811484 C239.948748,81.1115254 238,76.4057403 238,71.499075 L238,71.5 Z M256.5,146 C317.527465,146 367,195.472535 367,256.5 C367,317.527465 317.527465,367 256.5,367 C195.472535,367 146,317.527465 146,256.5 C146,195.472535 195.472535,146 256.5,146 Z M256,329.9963 C296.869071,329.9963 330,296.8662 330,255.99815 C330,215.1301 296.869071,182 256,182 C215.130929,182 182,215.1301 182,255.99815 C182,296.866375 215.130753,329.996935 256,330 L256,329.9963 Z M238,440.5 C238,430.282732 246.282732,422 256.5,422 C266.717268,422 275,430.282732 275,440.5 C275,450.717268 266.717268,459 256.5,459 C246.284177,459 238.002043,450.719523 238,440.5037 L238,440.5 Z M90,255.5 C90,265.717268 81.7172679,274 71.5,274 C61.2827321,274 53,265.717268 53,255.5 C53,245.282732 61.2827321,237 71.5,237 C76.4071462,237 81.113157,238.95009 84.5825129,242.420487 C88.0518688,245.890883 90,250.597479 89.999075,255.504625 L90,255.5 Z" id="Shape" fill="#FFD600" fill-rule="nonzero"></path>
    </g>
</svg>