<svg width="7275" height="1536" viewBox="0 0 7275 1536" fill="none" xmlns="http://www.w3.org/2000/svg">
<g id="verschoren_logo">
<rect width="2425" height="512" transform="scale(3)"/>
<path id="Subtract" d="M1288.61 577.846C1306.16 577.846 1321.98 588.415 1328.7 604.626C1335.41 620.837 1331.7 639.5 1319.29 651.908L711.955 1259.29C699.547 1271.7 680.885 1275.41 664.673 1268.7C648.461 1261.98 637.89 1246.16 637.89 1228.61V1213.22C637.89 1211.63 638.522 1210.1 639.647 1208.98L802.729 1045.9C802.743 1045.88 802.743 1045.86 802.729 1045.84V1045.84C802.714 1045.83 802.714 1045.8 802.729 1045.79L1173.64 674.857C1177.42 671.077 1174.74 664.614 1169.4 664.614H730.661C727.347 664.614 724.661 667.301 724.661 670.614V896.938C724.661 898.529 724.029 900.055 722.904 901.18L648.132 975.952C644.353 979.731 637.89 977.054 637.89 971.709V670.614C637.89 667.301 635.203 664.614 631.89 664.614H210C206.686 664.614 204 661.928 204 658.614V583.846C204 580.532 206.686 577.846 210 577.846H1288.61ZM594.463 1066.01C594.463 1071.35 600.926 1074.03 604.706 1070.25L624.201 1050.75C624.219 1050.73 624.249 1050.73 624.268 1050.75V1050.75C624.287 1050.77 624.317 1050.77 624.335 1050.75L811.399 863.685C811.418 863.666 811.418 863.636 811.399 863.618V863.618C811.38 863.599 811.38 863.569 811.399 863.55L965.195 709.757C966.32 708.632 967.846 708 969.437 708H1075.18C1080.52 708 1083.2 714.463 1079.42 718.243L777.281 1020.38C777.276 1020.38 777.269 1020.38 777.264 1020.38V1020.38C777.259 1020.37 777.251 1020.37 777.246 1020.38L590.13 1207.49C590.125 1207.5 590.125 1207.51 590.13 1207.51V1207.51C590.135 1207.52 590.135 1207.52 590.13 1207.53L581.757 1215.91C569.349 1228.32 550.686 1232.03 534.475 1225.31C518.263 1218.6 507.695 1202.78 507.694 1185.23L507.691 714C507.691 710.686 510.378 708 513.691 708H588.463C591.777 708 594.463 710.686 594.463 714V1066.01ZM594.463 441.691C594.463 445.005 597.149 447.691 600.463 447.691H1245.23C1262.78 447.691 1278.6 458.263 1285.31 474.475C1292.03 490.686 1288.32 509.346 1275.91 521.754L1264.96 532.706C1263.83 533.831 1262.31 534.463 1260.71 534.463H210C206.686 534.463 204 531.777 204 528.463V453.691C204 450.378 206.686 447.691 210 447.691H501.691C505.005 447.691 507.691 445.005 507.691 441.691V150C507.691 146.686 510.378 144 513.691 144H588.463C591.777 144 594.463 146.686 594.463 150V441.691ZM724.661 398.309C724.661 401.622 721.975 404.309 718.661 404.309H643.89C640.576 404.309 637.89 401.622 637.89 398.309V150C637.89 146.686 640.576 144 643.89 144H718.661C721.975 144 724.661 146.686 724.661 150V398.309Z" fill="#F97316"/>
<g id="verschoren">
<g id="verschoren_2">
<path id="Path" d="M1816.98 1085.04C1872.72 1085.04 1904.8 1060.85 1924.26 1006.69L2070.98 610.175C2075.71 597.028 2079.39 581.251 2079.39 567.053C2079.39 528.138 2047.31 498.688 2004.72 498.688C1968.96 498.688 1943.19 518.146 1932.67 558.639L1818.56 938.323H1815.4L1701.28 560.216C1689.71 518.672 1665 498.688 1627.66 498.688C1584.01 498.688 1550.88 526.034 1550.88 567.579C1550.88 583.355 1554.56 599.657 1559.3 613.33L1706.02 1006.69C1726.53 1061.38 1758.08 1085.04 1816.98 1085.04Z" fill="#FFF"/>
<path id="Shape" fill-rule="evenodd" clip-rule="evenodd" d="M2625.78 975.661C2588.44 1045.08 2501.15 1086.1 2392.29 1086.1C2216.12 1086.1 2112.52 977.238 2112.52 794.758C2112.52 613.33 2218.22 498.163 2384.93 498.163C2544.79 498.163 2652.07 607.545 2652.07 760.576C2652.07 803.172 2627.88 827.363 2585.29 827.363H2263.45V834.199C2263.45 917.814 2313.93 972.505 2391.76 972.505C2448.03 972.505 2484.84 953.574 2526.39 904.667C2542.69 887.839 2556.36 882.054 2576.35 882.054C2609.48 882.054 2636.3 903.089 2636.3 938.323C2636.3 950.418 2632.62 963.04 2625.78 975.661ZM2386.5 611.752C2319.19 611.752 2270.29 661.185 2265.03 733.23H2504.3C2501.15 659.607 2453.82 611.752 2386.5 611.752Z" fill="#FFF"/>
<path id="Path_2" d="M2807.73 1085.04C2854.54 1085.04 2884.51 1056.12 2884.51 1005.11V754.792C2884.51 688.005 2909.23 648.564 2979.17 647.512C3009.15 646.986 3031.23 640.15 3045.96 627.529C3060.68 614.908 3068.04 596.502 3068.04 572.312C3068.04 546.018 3060.68 527.086 3045.96 515.517C3034.91 506.051 3018.61 501.318 2998.1 501.318C2941.83 501.318 2895.56 542.862 2880.83 612.804H2877.68V575.993C2877.68 527.086 2848.23 498.688 2805.1 498.688C2760.93 498.688 2730.96 527.086 2730.96 575.993V1005.11C2730.96 1056.12 2761.46 1085.04 2807.73 1085.04Z" fill="#FFF"/>
<path id="Path_3" d="M3352.54 1086.1C3501.37 1086.1 3601.81 1013.52 3601.81 901.512C3601.81 817.371 3552.38 773.197 3432.48 747.955L3339.4 727.972C3283.13 715.876 3261.04 696.419 3261.04 666.97C3261.04 630.684 3297.33 605.968 3349.39 605.968C3404.61 605.968 3435.11 632.262 3461.93 666.444C3475.6 682.746 3497.69 690.108 3517.67 690.108C3557.11 690.108 3576.57 668.547 3576.57 637.521C3576.57 630.158 3574.99 622.796 3572.89 614.908C3554.48 551.276 3468.76 498.163 3352.02 498.163C3205.82 498.163 3112.74 567.579 3112.74 675.384C3112.74 758.999 3168.49 815.268 3278.92 838.932L3373.58 858.916C3428.8 871.011 3448.25 887.313 3448.25 917.814C3448.25 955.151 3411.97 978.29 3356.23 978.29C3297.85 978.29 3263.14 960.41 3233.17 920.969C3212.13 897.305 3191.1 886.261 3166.38 886.261C3130.62 886.261 3104.33 909.926 3104.33 945.16C3104.33 953.574 3106.43 963.565 3110.11 973.557C3136.93 1039.82 3223.18 1086.1 3352.54 1086.1Z" fill="#FFF"/>
<path id="Path_4" d="M3934.69 1086.1C4042.5 1086.1 4138.73 1032.46 4172.39 955.677C4179.23 940.427 4182.38 927.806 4182.38 915.71C4182.38 877.847 4153.46 854.183 4117.7 854.183C4085.09 854.183 4068.27 867.33 4047.76 899.408C4024.09 939.375 3990.96 965.669 3937.32 965.669C3860.54 965.669 3812.69 902.563 3812.69 791.603C3812.69 682.746 3860.54 618.589 3938.37 618.589C3987.28 618.589 4021.46 641.202 4049.33 690.634C4065.11 718.506 4083.52 730.601 4114.02 730.601C4150.3 730.601 4179.75 708.514 4179.75 670.651C4179.75 659.607 4176.6 645.935 4171.34 632.788C4140.84 552.854 4046.7 498.163 3933.64 498.163C3764.31 498.163 3657.03 611.752 3657.03 792.129C3657.03 974.609 3764.83 1086.1 3934.69 1086.1Z" fill="#FFF"/>
<path id="Path_5" d="M4344.88 1085.04C4390.1 1085.04 4421.66 1057.7 4421.66 1005.11V752.162C4421.66 678.013 4464.25 627.003 4536.82 627.003C4606.77 627.003 4642.52 671.177 4642.52 743.748V1005.11C4642.52 1057.7 4674.6 1085.04 4719.3 1085.04C4764.53 1085.04 4796.08 1057.7 4796.08 1005.11V711.144C4796.08 580.726 4724.56 499.74 4599.4 499.74C4513.68 499.74 4452.16 539.707 4422.18 610.701H4419.03V382.469C4419.03 333.037 4391.15 303.587 4343.83 303.587C4296.5 303.587 4268.1 333.037 4268.1 382.469V1005.11C4268.1 1057.7 4300.18 1085.04 4344.88 1085.04Z" fill="#FFF"/>
<path id="Shape_2" fill-rule="evenodd" clip-rule="evenodd" d="M5431.87 791.603C5431.87 977.238 5323.01 1086.1 5152.63 1086.1C4982.24 1086.1 4873.39 976.712 4873.39 791.603C4873.39 609.123 4983.82 498.163 5152.63 498.163C5321.43 498.163 5431.87 608.597 5431.87 791.603ZM5029.05 792.129C5029.05 905.193 5076.9 968.824 5152.63 968.824C5227.83 968.824 5275.68 905.193 5275.68 792.129C5275.68 680.117 5227.3 615.434 5152.63 615.434C5077.95 615.434 5029.05 680.117 5029.05 792.129Z" fill="#FFF"/>
<path id="Path_6" d="M5587.53 1085.04C5634.33 1085.04 5664.31 1056.12 5664.31 1005.11V754.792C5664.31 688.005 5689.02 648.564 5758.97 647.512C5788.94 646.986 5811.03 640.15 5825.75 627.529C5840.48 614.908 5847.84 596.502 5847.84 572.312C5847.84 546.018 5840.48 527.086 5825.75 515.517C5814.71 506.051 5798.41 501.318 5777.9 501.318C5721.63 501.318 5675.35 542.862 5660.63 612.804H5657.47V575.993C5657.47 527.086 5628.02 498.688 5584.9 498.688C5540.73 498.688 5510.75 527.086 5510.75 575.993V1005.11C5510.75 1056.12 5541.25 1085.04 5587.53 1085.04Z" fill="#FFF"/>
<path id="Shape_3" fill-rule="evenodd" clip-rule="evenodd" d="M6376.87 975.661C6339.54 1045.08 6252.24 1086.1 6143.38 1086.1C5967.21 1086.1 5863.62 977.238 5863.62 794.758C5863.62 613.33 5969.32 498.163 6136.02 498.163C6295.89 498.163 6403.17 607.545 6403.17 760.576C6403.17 803.172 6378.98 827.363 6336.38 827.363H6014.54V834.199C6014.54 917.814 6065.03 972.505 6142.86 972.505C6199.13 972.505 6235.94 953.574 6277.48 904.667C6293.78 887.839 6307.46 882.054 6327.44 882.054C6360.57 882.054 6387.39 903.089 6387.39 938.323C6387.39 950.418 6383.71 963.04 6376.87 975.661ZM6137.6 611.752C6070.29 611.752 6021.38 661.185 6016.12 733.23H6255.4C6252.24 659.607 6204.91 611.752 6137.6 611.752Z" fill="#FFF"/>
<path id="Path_7" d="M6558.83 1085.04C6604.05 1085.04 6635.61 1057.7 6635.61 1005.11V750.584C6635.61 677.487 6679.25 627.003 6748.14 627.003C6817.03 627.003 6851.74 669.073 6851.74 742.696V1005.11C6851.74 1057.7 6883.29 1085.04 6928.52 1085.04C6973.22 1085.04 7005.3 1057.7 7005.3 1005.11V710.618C7005.3 578.622 6934.83 499.74 6809.67 499.74C6722.9 499.74 6666.11 538.129 6636.13 608.071H6632.98V576.519C6632.98 528.138 6602.48 498.688 6556.2 498.688C6509.92 498.688 6482.05 528.138 6482.05 575.993V1005.11C6482.05 1057.7 6514.13 1085.04 6558.83 1085.04Z" fill="#FFF"/>
</g>
</g>
</g>
</svg>
