<?xml version="1.0" encoding="UTF-8"?>
<svg width="16px" height="16px" viewBox="0 0 16 16" version="1.1" xmlns="http://www.w3.org/2000/svg" xmlns:xlink="http://www.w3.org/1999/xlink">
    <title>verschoren_safari</title>
    <g id="verschoren_safari" stroke="none" stroke-width="1" fill="none" fill-rule="evenodd">
        <path d="M14.3518519,8.64814815 C13.9938895,8.64814815 13.7037037,8.35796234 13.7037037,8 C13.7037037,7.64203766 13.9938895,7.35185185 14.3518519,7.35185185 C14.7098142,7.35185185 15,7.64203766 15,8 C15,8.35796234 14.7098142,8.64814815 14.3518519,8.64814815 Z M3.59259259,2.94447685 C3.95055493,2.94447685 4.24074074,3.23465541 4.24074074,3.5926088 C4.24074074,3.95056218 3.95055493,4.24074074 3.59259259,4.24074074 C3.23463025,4.24074074 2.94444444,3.95056218 2.94444444,3.5926088 C2.94444444,3.42071352 3.01271445,3.25585521 3.13425973,3.13430081 C3.255805,3.01274642 3.42066061,2.94444444 3.59256019,2.94444444 L3.59259259,2.94447685 Z M2.94447685,12.4074074 C2.94447685,12.0494451 3.23465541,11.7592593 3.5926088,11.7592593 C3.95056218,11.7592593 4.24074074,12.0494451 4.24074074,12.4074074 C4.24074074,12.7653697 3.95056218,13.0555556 3.5926088,13.0555556 C3.4207079,13.0555556 3.25584468,12.9872811 3.13428935,12.8657288 C3.01273403,12.7441765 2.94444444,12.5793126 2.94444444,12.4074074 L2.94447685,12.4074074 Z M12.4074074,13.0555556 C12.0494451,13.0555556 11.7592593,12.7653697 11.7592593,12.4074074 C11.7592593,12.0494451 12.0494451,11.7592593 12.4074074,11.7592593 C12.7653697,11.7592593 13.0555556,12.0494451 13.0555556,12.4074074 C13.0555556,12.7653697 12.7653697,13.0555556 12.4074074,13.0555556 Z M13.0555556,3.59259259 C13.0555556,3.95055493 12.7653697,4.24074074 12.4074074,4.24074074 C12.0494451,4.24074074 11.7592593,3.95055493 11.7592593,3.59259259 C11.7592593,3.23463025 12.0494451,2.94444444 12.4074074,2.94444444 C12.7653697,2.94444444 13.0555556,3.23463025 13.0555556,3.59259259 L13.0555556,3.59259259 Z M7.35185185,1.64814815 C7.35185185,1.29018581 7.64203766,1 8,1 C8.35796234,1 8.64814815,1.29018581 8.64814815,1.64814815 C8.64814815,2.00611049 8.35796234,2.2962963 8,2.2962963 C7.82809481,2.2962963 7.66323088,2.22800501 7.54167859,2.10644664 C7.4201263,1.98488828 7.35185185,1.82002093 7.35185185,1.64811574 L7.35185185,1.64814815 Z M8.02160494,4.15432099 C10.1335827,4.15432099 11.845679,5.86641727 11.845679,7.97839506 C11.845679,10.0903729 10.1335827,11.8024691 8.02160494,11.8024691 C5.90962714,11.8024691 4.19753086,10.0903729 4.19753086,7.97839506 C4.19753086,5.86641727 5.90962714,4.15432099 8.02160494,4.15432099 Z M8.02160494,10.5060465 C9.41765806,10.5060465 10.5493827,9.37435009 10.5493827,7.97833187 C10.5493827,6.58231365 9.41765806,5.45061728 8.02160494,5.45061728 C6.62555182,5.45061728 5.49382716,6.58231365 5.49382716,7.97833187 C5.49382716,9.37435608 6.62554583,10.5060681 8.02160494,10.5061728 L8.02160494,10.5060465 Z M7.35185185,14.3518519 C7.35185185,13.9938895 7.64203766,13.7037037 8,13.7037037 C8.35796234,13.7037037 8.64814815,13.9938895 8.64814815,14.3518519 C8.64814815,14.7098142 8.35796234,15 8,15 C7.64208828,15 7.35192343,14.7098932 7.35185185,14.3519815 L7.35185185,14.3518519 Z M2.2962963,8 C2.2962963,8.35796234 2.00611049,8.64814815 1.64814815,8.64814815 C1.29018581,8.64814815 1,8.35796234 1,8 C1,7.64203766 1.29018581,7.35185185 1.64814815,7.35185185 C1.82007019,7.35185185 1.98494544,7.42017332 2.10649445,7.54175879 C2.22804345,7.66334427 2.2962963,7.82824 2.29626389,8.00016204 L2.2962963,8 Z" id="Shape" fill="#000000" fill-rule="nonzero"></path>
    </g>
</svg>