<?xml version="1.0" encoding="UTF-8"?>
<svg width="734px" height="734px" viewBox="0 0 734 734" version="1.1" xmlns="http://www.w3.org/2000/svg" xmlns:xlink="http://www.w3.org/1999/xlink">
    <title>internalnote_social</title>
    <g id="internalnote_social" stroke="none" stroke-width="1" fill="none" fill-rule="evenodd">
        <rect fill="#FFFFFF" x="0" y="0" width="734" height="734"></rect>
        <g id="Group" transform="translate(161.000000, 202.000000)" fill="#007AFF" fill-rule="nonzero">
            <g id="Path" transform="translate(0.000000, -0.000000)">
                <path d="M42.8923444,237.888494 C42.8923444,264.992274 64.9052444,287.010649 91.9888667,287.010649 L321.011133,287.010649 C348.071811,287.010649 370.084711,264.992274 370.084711,237.888494 L370.084711,92.1023178 C370.084711,64.9985383 348.071811,42.9571936 321.011133,42.9571936 L91.9888667,42.9571936 C64.9052444,42.9571936 42.8923444,64.9985383 42.8923444,92.1023178 C42.8923444,92.1023178 42.8923444,121.356024 42.8923444,142.460221 C65.1714,142.460221 139.167233,142.460221 180.889411,142.460221 L180.889411,103.600752 L285.295811,163.968678 L180.884822,224.244728 L180.884822,185.422009 L0,185.422009 L0,92.1023178 C0,41.3217791 41.2632889,0 91.9888667,0 L321.011133,0 C371.722944,0 413,41.3217791 413,92.1023178 L413,237.888494 C413,288.664439 371.722944,330 321.011133,330 L91.9888667,330 C41.2632889,330 0,288.664439 0,237.888494 L42.8923444,237.888494 Z"></path>
            </g>
        </g>
    </g>
</svg>