<svg width="2202" height="2202" viewBox="0 0 2202 2202" fill="none" xmlns="http://www.w3.org/2000/svg">
<g id="internalnote_social_eggshell">
<rect width="734" height="734" transform="scale(3)" fill="#FEFAF2"/>
<g id="Group">
<g id="symbol">
<g id="Group_2">
<g id="Group_3">
<path id="Path" d="M611.677 1319.67C611.677 1400.98 677.716 1467.03 758.967 1467.03H1446.03C1527.22 1467.03 1593.25 1400.98 1593.25 1319.67V882.307C1593.25 800.996 1527.22 734.872 1446.03 734.872H758.967C677.716 734.872 611.677 800.996 611.677 882.307C611.677 882.307 611.677 970.068 611.677 1033.38C678.514 1033.38 900.502 1033.38 1025.67 1033.38V916.802L1338.89 1097.91L1025.65 1278.73V1162.27H483V882.307C483 729.965 606.79 606 758.967 606H1446.03C1598.17 606 1722 729.965 1722 882.307V1319.67C1722 1471.99 1598.17 1596 1446.03 1596H758.967C606.79 1596 483 1471.99 483 1319.67H611.677Z" fill="#006DFF"/>
</g>
</g>
</g>
</g>
</g>
</svg>
