<svg width="38" height="38" viewBox="0 0 38 38" fill="none" xmlns="http://www.w3.org/2000/svg">
<g id="luminaries">
<g id="Group">
<path id="Path" d="M22.4249 19.3563C22.5193 22.1158 21.4104 24.1104 18.9659 24.1104C17.0621 24.1104 15.1343 22.652 15.1343 19.7588V12H12V19.9214C12 22.9225 13.9644 26 18.4905 26C22.8837 26 24.6517 22.7747 24.6714 20.0998C27.8789 20.6058 29.3494 18.1575 28.93 16.4901C28.37 17.1523 27.474 17.738 24.6753 16.9264V12H22.4253V16.1459C18.0297 14.6697 16.9893 18.7665 16.9893 18.7665C16.9893 18.7665 19.045 17.6096 22.4253 19.3563" fill="white"/>
</g>
<circle id="Ellipse 1" cx="19" cy="19" r="12" fill="#EFC93D"/>
<rect id="Rectangle 1" x="7" y="7" width="13" height="13" fill="#EFC93D"/>
<path id="Hi" d="M13.0254 23V14.5449H14.7949V17.9785H18.6035V14.5449H20.373V23H18.6035V19.4375H14.7949V23H13.0254ZM21.4256 23V16.5488H23.1366V23H21.4256ZM22.287 15.5586C22.0252 15.5586 21.7987 15.4668 21.6073 15.2832C21.4159 15.0957 21.3202 14.8711 21.3202 14.6094C21.3202 14.3438 21.4159 14.1191 21.6073 13.9355C21.7987 13.748 22.0252 13.6543 22.287 13.6543C22.5526 13.6543 22.7791 13.748 22.9666 13.9355C23.1541 14.1191 23.2479 14.3438 23.2479 14.6094C23.2479 14.8711 23.1541 15.0957 22.9666 15.2832C22.7791 15.4668 22.5526 15.5586 22.287 15.5586Z" fill="#00263D"/>
</g>
</svg>
