<?xml version="1.0" encoding="UTF-8"?>
<svg width="28px" height="28px" viewBox="0 0 28 28" version="1.1" xmlns="http://www.w3.org/2000/svg" xmlns:xlink="http://www.w3.org/1999/xlink">
    <title>premiumplus</title>
    <g id="premiumplus" stroke="none" stroke-width="1" fill="none" fill-rule="evenodd">
        <g id="Icon-Full">
            <rect id="Rectangle-Copy" fill="#342993" x="0" y="0" width="28" height="28"></rect>
            <path d="M20.1034953,7.5841051 C19.5076043,6.55115227 18.6835848,5.75080767 17.6336604,5.180056 C17.5149269,5.11716563 17.3961934,5.05599828 17.2747917,5 L14.5443657,7.6448417 C15.0891168,7.80292914 15.5640509,8.08938187 15.9713913,8.50204609 C16.6277608,9.17187163 16.9559456,10.0691363 16.9559456,11.1921172 C16.9559456,12.3176825 16.6277608,13.2127935 15.9713913,13.882619 C15.3123536,14.5524445 14.4718805,14.8884342 13.4499718,14.8884342 C12.425395,14.8884342 11.5853666,14.5524445 10.9285524,13.882619 C10.4442797,13.3911264 10.1392191,12.7751454 10.0093682,12.0376911 L6,15.9209563 L6,23 L9.99291453,23 L9.99291453,16.4490631 C11.0010376,17.5246608 12.3813703,18.0613827 14.1414722,18.0613827 C15.4195251,18.0613827 16.5859595,17.7770838 17.6336604,17.2067629 C18.6835848,16.6360112 19.5076043,15.8330821 20.1034953,14.80056 C20.7020545,13.7676072 21,12.565798 21,11.1921172 C21,9.82102089 20.7020545,8.61705794 20.1034953,7.5841051" id="Fill-4" fill="#FFFFFF"></path>
        </g>
    </g>
</svg>