<?xml version="1.0" encoding="UTF-8"?>
<svg width="28px" height="28px" viewBox="0 0 28 28" version="1.1" xmlns="http://www.w3.org/2000/svg" xmlns:xlink="http://www.w3.org/1999/xlink">
    <title>switch</title>
    <g id="switch" stroke="none" stroke-width="1" fill="none" fill-rule="evenodd">
        <rect fill="#C3D831" x="0" y="0" width="28" height="28"></rect>
        <g id="Group" transform="translate(6.000000, 5.000000)" fill="#FFFFFF">
            <path d="M12.3322788,3.84128949 C12.7564755,3.84128949 13.0460392,4.09487383 13.0460392,4.09487383 C14.8473978,5.53185176 16,7.71951983 16,10.16681 C16,14.4860456 12.4111574,18 8.00012847,18 C3.58884268,18 0,14.4860456 0,10.16681 C0,7.75801031 1.11843013,5.60204028 2.87148524,4.16455921 C2.87482537,4.16128878 2.93597546,4.10896185 2.96398118,4.08682354 C2.99198689,4.06443365 3.25431568,3.84128949 3.66669343,3.84128949 C4.28693013,3.84128949 4.78974837,4.33361544 4.78974837,4.94116125 C4.78974837,5.48405313 4.38071074,5.79097067 4.38071074,5.79097067 C3.07960111,6.82467907 2.2463668,8.40228561 2.2463668,10.16681 C2.2463668,13.2732181 4.82751755,15.8005081 8.00012847,15.8005081 C11.1724824,15.8005081 13.7533763,13.2732181 13.7533763,10.16681 C13.7533763,8.4005246 12.9188573,6.82191177 11.6156922,5.78820339 C11.6156922,5.78820339 11.2092239,5.46342423 11.2092239,4.94116125 C11.2092239,4.33361544 11.7120422,3.84128949 12.3322788,3.84128949 Z M8.15722705,0 C7.51926196,0 7,0.508174971 7,1.13307923 C7,1.75773193 7.51926196,2.26615847 8.15722705,2.26615847 C8.79544907,2.26615847 9.3144541,1.75773193 9.3144541,1.13307923 C9.3144541,0.508174971 8.79544907,0 8.15722705,0 Z M8.15722705,2.88096712 C7.51926196,2.88096712 7,3.38939365 7,4.01404635 L7,9.76220962 C7,10.3868623 7.51926196,10.8952889 8.15722705,10.8952889 C8.79544907,10.8952889 9.3144541,10.3868623 9.3144541,9.76220962 L9.3144541,4.01404635 C9.3144541,3.38939365 8.79544907,2.88096712 8.15722705,2.88096712 Z" id="Combined-Shape"></path>
        </g>
    </g>
</svg>