<svg width="951" height="951" viewBox="0 0 951 951" fill="none" xmlns="http://www.w3.org/2000/svg">
<rect width="951" height="951" fill="#F6F6EF"/>
<path fill-rule="evenodd" clip-rule="evenodd" d="M651.272 306.531C644.948 312.856 638.387 318.778 631.633 324.372C689.955 361.471 735.632 415.819 762.018 480.529C766.743 492.112 761.252 505.38 749.67 510.24C722.863 521.513 695.053 529.078 666.884 533.326C688.951 584.337 700.443 640.002 700.011 696.293C699.916 708.798 689.789 718.925 677.294 719.01C620.993 719.442 565.328 707.94 514.327 685.874C510.093 714.047 502.519 741.848 491.245 768.675C486.371 780.271 473.118 785.738 461.535 781.022C396.829 754.641 342.486 708.978 305.368 650.647C299.774 657.391 293.851 663.962 287.537 670.277C278.608 679.205 264.157 679.225 255.253 670.322C147.586 562.655 148.836 386.234 258.035 277.035C258.103 276.986 258.152 276.938 258.195 276.875C258.215 276.855 258.239 276.85 258.263 276.826C367.472 167.83 543.728 166.658 651.318 274.247C660.221 283.151 660.201 297.603 651.272 306.531ZM709.971 476.456C683.475 424.052 641.623 381.142 589.948 353.028C567.478 365.69 543.666 375.08 519.229 381.1C541.336 413.499 557.529 449.46 567.206 487.383C614.938 495.481 663.732 491.81 709.971 476.456ZM618.399 537.133C638.943 579.248 651.073 625.483 653.772 672.772C606.473 670.063 560.234 657.947 518.128 637.394C518.216 623.174 517.596 608.946 515.887 594.763C528.84 596.164 541.92 596.906 555.089 596.806C567.584 596.72 577.711 586.594 577.806 574.089C577.906 560.93 577.169 547.835 575.768 534.882C589.947 536.596 604.18 537.22 618.399 537.133ZM457.454 728.975C472.818 682.726 476.484 633.936 468.381 586.209C430.458 576.533 394.497 560.33 362.084 538.218C356.069 562.669 346.688 586.481 334.026 608.971C362.15 660.627 405.06 702.489 457.454 728.975ZM271.489 620.115C341.339 534.556 342.417 411.681 274.073 327.187C204.227 412.76 203.15 535.626 271.489 620.115ZM351.391 370.362C365.907 407.536 372.027 447.352 369.792 486.885C415.89 523.923 472.155 546.142 531.399 550.399C527.143 491.155 504.924 434.88 467.885 388.801C428.367 391.031 388.576 384.868 351.391 370.362ZM308.197 293.074C392.691 361.418 515.562 360.345 601.121 290.495C516.622 222.156 393.756 223.233 308.197 293.074Z" fill="#34D399"/>
</svg>
