<?xml version="1.0" encoding="UTF-8"?>
<svg width="28px" height="28px" viewBox="0 0 28 28" version="1.1" xmlns="http://www.w3.org/2000/svg" xmlns:xlink="http://www.w3.org/1999/xlink">
    <title>ua</title>
    <g id="ua" stroke="none" stroke-width="1" fill="none" fill-rule="evenodd">
        <rect fill="#EE2840" x="0" y="0" width="28" height="28"></rect>
        <g id="Group" transform="translate(7.000000, 7.000000)" fill="#FFFFFF" fill-rule="nonzero">
            <path d="M10.4248561,7.3562597 C10.5192984,10.1157628 9.41038839,12.1104146 6.9659068,12.1104146 C5.06210739,12.1104146 3.1343039,10.6519639 3.1343039,7.75881304 L3.1343039,0 L0,0 L0,7.92144459 C0,10.9224797 1.96439988,14 6.49054721,14 C10.8836883,14 12.6517269,10.7747427 12.6714024,8.09977572 C15.8788991,8.60578527 17.3494444,6.15745586 16.9299632,4.49007994 C16.369999,5.15228018 15.4739777,5.73799528 12.6753375,4.92644775 L12.6753375,0 L10.4252496,0 L10.4252496,4.14589683 C6.02974748,2.66973374 4.98930812,6.76651906 4.98930812,6.76651906 C4.98930812,6.76651906 7.04500223,5.60958077 10.4252496,7.3562597" id="Path"></path>
        </g>
    </g>
</svg>